<svg id="Layer_1" data-name="Layer 1" xmlns="http://www.w3.org/2000/svg" viewBox="0 0 490.86 99.31"><defs><style>.cls-1{fill:#6a24ff;}.cls-1,.cls-2{fill-rule:evenodd;}.cls-2{fill:#2c3a49;}</style></defs><path class="cls-1" d="M43.33,107.9A52.25,52.25,0,0,1,16.14,90.55a50.45,50.45,0,0,1-2.89-60.43A52,52,0,0,1,38.66,10.35,51.09,51.09,0,0,0,22.1,34.57a50.33,50.33,0,0,0-.39,29.17,16.69,16.69,0,0,1,5.56-7.63,17.26,17.26,0,0,1,18.26-1.69,16.87,16.87,0,0,1,6.92,6.47,16.37,16.37,0,0,1-.86,18,16.92,16.92,0,0,1-7.5,5.8,17.35,17.35,0,0,1-9.51.91,52.63,52.63,0,0,0,26,14.22,53.34,53.34,0,0,0,29.66-1.93A52.57,52.57,0,0,1,68,108.48,53.11,53.11,0,0,1,43.33,107.9Z" transform="translate(-4.57 -10.35)"/><path class="cls-1" d="M84.68,42.64A29.48,29.48,0,0,1,85.07,72a30.26,30.26,0,0,1-10.6,11,31,31,0,0,1-14.76,4.54,45.69,45.69,0,0,0,6.55,2.27c33.82,8.88,48.24-31.4,33.77-56s-57.22-32.43-66.29.73a45.54,45.54,0,0,0-1.29,6.74,30.24,30.24,0,0,1,11.4-10.3,31.08,31.08,0,0,1,30,.73A30.33,30.33,0,0,1,84.68,42.64Z" transform="translate(-4.57 -10.35)"/><path class="cls-2" d="M146.35,80.18A21.65,21.65,0,0,0,157.52,77a21.16,21.16,0,0,0,7.79-8.49l-7.11-3.64a12.87,12.87,0,0,1-4.82,5.64,13.16,13.16,0,0,1-7.2,2.07,13.91,13.91,0,0,1-9.36-4.19,13.33,13.33,0,0,1,.12-18.72,13.91,13.91,0,0,1,9.41-4.08,12.83,12.83,0,0,1,6.79,1.81,12.43,12.43,0,0,1,4.73,5.1l6.81-4.28a21.29,21.29,0,0,0-10.45-8.69,21.8,21.8,0,0,0-13.68-.71,21.45,21.45,0,0,0-11.33,7.56,20.78,20.78,0,0,0-4.35,12.74,20.08,20.08,0,0,0,1.45,8.17A20.41,20.41,0,0,0,131,74.18,20.64,20.64,0,0,0,138,78.73a21.13,21.13,0,0,0,8.33,1.42v0Zm21.82-.58h7.64V62.14c0-5.67,2.36-8,6.87-8a7.87,7.87,0,0,1,4.65,1.28l2.92-7.19a12.13,12.13,0,0,0-5.91-1.41,8.64,8.64,0,0,0-5.08,1.11,8.42,8.42,0,0,0-3.49,3.79v-5h-7.68V79.59h.08Zm39.82.69a17.64,17.64,0,0,0,9.7-2.89,17.22,17.22,0,0,0,6.43-7.68,16.77,16.77,0,0,0,1-9.89,17,17,0,0,0-4.78-8.77,17.59,17.59,0,0,0-8.94-4.69,17.8,17.8,0,0,0-10.08,1,17.34,17.34,0,0,0-7.83,6.31,16.88,16.88,0,0,0,2.17,21.62A17.62,17.62,0,0,0,208,80.29Zm0-7.15a10.33,10.33,0,0,1-5.77-1.47,10,10,0,0,1-3.94-4.39,9.74,9.74,0,0,1-.75-5.8,10,10,0,0,1,2.69-5.22,10.15,10.15,0,0,1,5.21-2.84A10.28,10.28,0,0,1,216,57.61a9.89,9.89,0,0,1,1.73,5.59,9.61,9.61,0,0,1-.66,3.75A9.48,9.48,0,0,1,215,70.16a10,10,0,0,1-3.19,2.17A10.16,10.16,0,0,1,208,73.14Zm28.12,6.42L224.9,46.73h7.9l7.4,22.67,8.42-22.67h7.68l8.25,22.71,7.66-22.71h7.85L268.32,79.6H260.9l-8.49-22.75L243.68,79.6Zm60.15.69a14.09,14.09,0,0,0,6-1.23,13.69,13.69,0,0,0,4.87-3.71v4.28h7.74V38h-7.79V50.63a13.86,13.86,0,0,0-4.84-3.44,14.05,14.05,0,0,0-5.87-1.12,16.81,16.81,0,0,0-6.57,1.3,16.54,16.54,0,0,0-5.51,3.75,16.24,16.24,0,0,0-3.55,5.58,15.86,15.86,0,0,0-1,6.5,16.14,16.14,0,0,0,1.05,6.45,16.49,16.49,0,0,0,3.52,5.54A16.84,16.84,0,0,0,289.78,79a17.06,17.06,0,0,0,6.5,1.38Zm1.24-7a10.45,10.45,0,0,1-7.33-3,10,10,0,0,1,0-14.38,10.5,10.5,0,0,1,14.66,0,10,10,0,0,1,0,14.38A10.45,10.45,0,0,1,297.5,73.27ZM318,53.49h5.67V79.56h7.86v-26h6.87V46.73h-6.87c0-4.77.7-6.16,6.87-6.16v-7h-.67c-10.21,0-14.05,3.72-14.05,13.16H318v6.8Zm53.56-6.8h-7.72v18c0,5.8-3.16,9-7.44,9-4.89,0-7.18-3.15-7.18-8.26V46.73H341.4v19.5c0,9,4.87,14.06,12.87,14.06a11.69,11.69,0,0,0,5.37-1.07,11.45,11.45,0,0,0,4.25-3.39V79.6h7.68V46.69Zm4.76,32.87h7.74v-18c0-5.8,3.42-8.95,7.83-8.95,5,0,7.57,3.15,7.57,8.26V79.56h7.86V60.06c0-8.92-4.87-14-13.29-14a12.38,12.38,0,0,0-5.59,1.17A12.1,12.1,0,0,0,384,50.73v-4h-7.68V79.56Zm50.88.69a14.05,14.05,0,0,0,6-1.24,13.79,13.79,0,0,0,4.88-3.7v4.28h7.72V38h-7.79V50.63a13.86,13.86,0,0,0-4.84-3.44,14.05,14.05,0,0,0-5.87-1.12,16.73,16.73,0,0,0-6.56,1.3,16.5,16.5,0,0,0-5.5,3.75,16.21,16.21,0,0,0-3.54,5.58,16,16,0,0,0-1,6.5,16.09,16.09,0,0,0,1,6.44,16.34,16.34,0,0,0,3.52,5.54,16.84,16.84,0,0,0,5.44,3.76,17.06,17.06,0,0,0,6.5,1.38Zm1.26-7a10.47,10.47,0,0,1-7.33-3,10,10,0,0,1,0-14.38,10.5,10.5,0,0,1,14.66,0,10,10,0,0,1,0,14.38A10.45,10.45,0,0,1,428.47,73.27Zm22,6.29h7.81V38h-7.81V79.56Zm17.08,15.13h7.86l20-48h-8.14l-8.73,22.13-9.34-22.13H461l13.75,31.2Z" transform="translate(-4.57 -10.35)"/></svg>