<svg id="Layer_1" data-name="Layer 1" xmlns="http://www.w3.org/2000/svg" viewBox="0 0 471.07 84.55"><defs><style>.cls-1{fill:#00a678;}.cls-1,.cls-2{fill-rule:evenodd;}.cls-2,.cls-3{fill:#161617;}.cls-4{fill:#7c7e80;}</style></defs><path class="cls-1" d="M29.76,92.21q4.15-16.93,8.3-33.87L40.9,72.66C55.8,62.16,77.33,51.27,94.5,46,68.8,60.56,46.88,76.42,29.76,92.21Z" transform="translate(-14.47 -17.72)"/><polygon class="cls-2" points="50.42 26.62 70.5 28.12 57.98 33.36 46.15 32.49 39.54 16.31 32.94 32.49 15.51 33.78 19.77 37.38 18.13 44.07 0 28.73 28.67 26.62 39.54 0 50.42 26.62"/><polygon class="cls-2" points="63.52 74.5 57.58 58.6 50.2 63.99 63.52 74.5"/><polygon class="cls-2" points="48.03 53.27 59.59 57.91 48.93 65.69 48.03 53.27"/><path class="cls-3" d="M137.49,66a13.09,13.09,0,0,0,4.43-5.24,16,16,0,0,0,1.53-7q0-7.27-4-10.94t-11.6-3.67H106.29V87.67h8V69.35h10.26l11.34,18.32h10L132.85,68A12.87,12.87,0,0,0,137.49,66ZM114.29,46h12.57c3,0,5.13.72,6.37,2.18a9.27,9.27,0,0,1,1.85,6.18q0,4.29-2.36,6.4c-1.58,1.41-4,2.11-7.16,2.11H114.29Z" transform="translate(-14.47 -17.72)"/><path class="cls-3" d="M185.58,60.23a14.7,14.7,0,0,0-5.27-7.31,16,16,0,0,0-9.53-2.62q-8,0-12.47,4.91t-4.47,14.43A23.23,23.23,0,0,0,156,80.11a14.66,14.66,0,0,0,6.1,6.47,19.13,19.13,0,0,0,9.34,2.18,35,35,0,0,0,7.2-.68,32.06,32.06,0,0,0,5.74-1.78v-7a32.23,32.23,0,0,1-3.13,1.34,24.24,24.24,0,0,1-4,1.13,23.13,23.13,0,0,1-4.61.44c-3.68,0-6.47-1.06-8.37-3.16-1.66-1.86-2.59-4.45-2.79-7.82h25.63A32,32,0,0,0,185.58,60.23Zm-20-2.47a9.54,9.54,0,0,1,4.94-1.2q4.5,0,6.62,2.58a12,12,0,0,1,2.19,6.37H161.71a17.12,17.12,0,0,1,.82-3.67A7.43,7.43,0,0,1,165.63,57.76Z" transform="translate(-14.47 -17.72)"/><polygon class="cls-3" points="197.08 61.59 185.48 33.46 177.34 33.46 192.67 69.95 200.3 69.95 215.72 33.46 207.8 33.46 197.08 61.59"/><polygon class="cls-3" points="224.95 33.67 224.95 69.95 232.66 69.95 232.59 33.67 224.95 33.67"/><rect class="cls-3" x="224.74" y="20.73" width="8.14" height="6.91"/><path class="cls-3" d="M289.4,60.23a14.7,14.7,0,0,0-5.27-7.31,15.91,15.91,0,0,0-9.52-2.62q-8,0-12.47,4.91t-4.48,14.43a23.23,23.23,0,0,0,2.15,10.47,14.72,14.72,0,0,0,6.1,6.47,19.13,19.13,0,0,0,9.34,2.18,35,35,0,0,0,7.2-.68,32.17,32.17,0,0,0,5.75-1.78v-7a33.33,33.33,0,0,1-3.13,1.34,24.24,24.24,0,0,1-4,1.13,23.23,23.23,0,0,1-4.62.44c-3.68,0-6.47-1.06-8.37-3.16-1.66-1.86-2.58-4.45-2.79-7.82H291A31.79,31.79,0,0,0,289.4,60.23Zm-19.95-2.47a9.54,9.54,0,0,1,4.94-1.2c3,0,5.21.86,6.62,2.58a12,12,0,0,1,2.19,6.37H265.55a16,16,0,0,1,.82-3.67A7.36,7.36,0,0,1,269.45,57.76Z" transform="translate(-14.47 -17.72)"/><polygon class="cls-3" points="321.86 61.11 313.95 33.46 307.62 33.46 299.92 60.95 291.77 33.46 283.63 33.46 295.77 69.95 302.97 69.95 310.74 44 318.61 69.95 325.8 69.95 338.01 33.46 330.16 33.46 321.86 61.11"/><polygon class="cls-4" points="385.86 21.46 376.69 21.46 364.95 39.24 352.62 21.46 342.81 21.46 359.45 45.48 342.74 69.95 351.9 69.95 363.86 51.84 376.4 69.95 386.22 69.95 369.42 45.7 385.86 21.46"/><path class="cls-4" d="M433.33,52.12a21.22,21.22,0,0,0-8.87-1.82,40.21,40.21,0,0,0-5.56.4,23.48,23.48,0,0,0-5.13,1.3A10,10,0,0,0,410,54.44a5.35,5.35,0,0,0-1.42,3.77v44.07h7.57V86.69a13.7,13.7,0,0,0,1.6.66,23.09,23.09,0,0,0,4.07,1,22.08,22.08,0,0,0,3.42.33,17.39,17.39,0,0,0,9.16-2.29,14.73,14.73,0,0,0,5.75-6.47,23.19,23.19,0,0,0,2-9.86q0-7.48-2.4-11.81A13.9,13.9,0,0,0,433.33,52.12Zm-.15,24.5a8.85,8.85,0,0,1-3.48,4.22,10.81,10.81,0,0,1-5.82,1.46,14.47,14.47,0,0,1-3.85-.54,19.51,19.51,0,0,1-3.86-1.56V59.91c0-1,.74-1.71,2.23-2.22a18.36,18.36,0,0,1,5.85-.76,9.94,9.94,0,0,1,6.25,1.71,8.73,8.73,0,0,1,3,4.69,24.37,24.37,0,0,1,.84,6.62A17.2,17.2,0,0,1,433.18,76.62Z" transform="translate(-14.47 -17.72)"/><path class="cls-4" d="M483.64,59a13.58,13.58,0,0,0-5.81-6.51,20.17,20.17,0,0,0-10-2.22q-8.43,0-12.91,4.62t-4.47,14.51q0,9.3,4.33,14.32t13.19,5q8.44,0,13-5.05t4.53-14.28A25.7,25.7,0,0,0,483.64,59ZM477,76.12a9.23,9.23,0,0,1-3.16,4.55,9.6,9.6,0,0,1-5.89,1.63c-3.59,0-6.14-1.14-7.63-3.42s-2.25-5.43-2.25-9.45a21.77,21.77,0,0,1,.94-6.84,8.41,8.41,0,0,1,3.13-4.37A10,10,0,0,1,468,56.7a10.48,10.48,0,0,1,5.81,1.42,8.16,8.16,0,0,1,3.2,4.25,21.3,21.3,0,0,1,1,7.05A21.05,21.05,0,0,1,477,76.12Z" transform="translate(-14.47 -17.72)"/></svg>