<svg width="196" height="36" viewBox="0 0 196 36" fill="none" xmlns="http://www.w3.org/2000/svg">
<path d="M5.12508 19.1767C4.33864 19.1353 3.46942 19.0525 2.60021 18.7627C1.06873 18.2247 0.489249 17.1485 0.903162 15.5756C1.15151 14.5408 1.6896 13.6302 2.26908 12.761C3.63499 10.6914 5.29064 8.87023 7.07047 7.17318C8.51916 5.76588 10.0506 4.44136 11.5407 3.07544C11.6235 2.99266 11.6649 2.95127 11.7891 2.86849C11.4166 2.24762 11.0026 1.58536 10.6301 0.923096C13.0722 0.923096 15.4729 0.923096 17.915 0.923096C17.0044 3.48936 16.1352 5.97284 15.2246 8.5391C14.7692 7.79405 14.3139 7.0904 13.9 6.34536C13.8586 6.34536 13.8173 6.38675 13.7759 6.38675C11.2096 8.12518 8.68473 9.9464 6.36681 12.0574C5.41481 12.9266 4.5456 13.8372 3.80055 14.872C3.38664 15.4514 3.01412 16.0723 2.88994 16.8174C2.76577 17.6038 3.05551 18.2247 3.71777 18.6386C4.17308 18.8455 4.66977 19.0111 5.12508 19.1767Z" fill="#0F0B4A"/>
<path d="M33.2702 15.2031C34.098 15.4101 34.843 15.617 35.5467 16.031C36.5815 16.6518 36.9126 17.6038 36.4573 18.7628C36.0434 19.839 35.2983 20.7082 34.5119 21.4946C32.7321 23.2744 30.7453 24.7645 28.6343 26.1304C27.5996 26.7927 26.5648 27.455 25.53 28.1172C25.4472 28.1586 25.4058 28.2 25.323 28.2828C25.5714 28.9036 25.7783 29.4831 26.0681 30.104C23.9985 29.7315 21.9289 29.4003 19.8594 29.0278C20.9769 26.9996 22.0945 25.0129 23.2121 22.9433C23.5018 23.647 23.7502 24.3092 24.0399 25.0129C24.7435 24.6817 25.4472 24.3506 26.1095 24.0195C28.2618 22.9433 30.4142 21.8671 32.3182 20.4184C32.9804 19.9217 33.5599 19.3423 34.1394 18.7628C34.4291 18.473 34.6361 18.1419 34.8016 17.7694C35.1742 16.983 35.0086 16.3207 34.3049 15.7826C33.9738 15.5343 33.6427 15.4101 33.2702 15.2031Z" fill="#0F0B4A"/>
<path d="M27.227 10.0707C27.227 12.6783 27.227 15.2032 27.227 17.7281C27.227 17.7281 27.227 17.7281 27.1857 17.7281C26.8545 16.2794 26.482 14.8307 26.1095 13.3406C22.7568 16.238 18.866 17.9764 14.6027 18.9698C16.4239 24.2679 17.4587 29.6074 16.6309 35.1952C16.4239 29.0279 15.0994 23.1089 12.3262 17.5211C18.121 16.6519 23.1293 14.3754 27.227 10.0707Z" fill="#635BFF"/>
<path d="M22.6328 8.66333C22.7156 9.44976 22.757 10.1534 22.8398 10.8571C22.8812 11.064 22.7984 11.1882 22.6328 11.3124C20.9358 12.8025 18.949 13.7959 16.8381 14.5409C14.5201 15.3687 12.1195 15.8654 9.67737 16.1552C9.63597 16.1552 9.59458 16.1552 9.5118 16.1965C11.8297 20.0873 13.6509 24.1023 14.3546 28.5725C12.6575 23.44 10.2155 18.7628 6.49023 14.7479C7.02832 14.7065 7.56641 14.6651 8.0631 14.6237C12.4506 14.1684 16.5897 13.0508 20.3149 10.5673C21.06 10.0706 21.7222 9.44976 22.4259 8.87029C22.4673 8.87029 22.5501 8.7875 22.6328 8.66333Z" fill="#635BFF"/>
<path d="M43.2051 10.2362C43.2051 9.65671 43.412 9.20141 43.7846 8.7875C44.1985 8.37358 44.6538 8.16663 45.2333 8.16663H57.4023V11.5607H47.1373V15.7826H54.7946V17.0658C54.7946 17.6452 54.5877 18.1005 54.1738 18.5145C53.7599 18.9284 53.2632 19.0939 52.7251 19.0939H47.1373V27.7861H43.2051V10.2362Z" fill="#635BFF"/>
<path d="M72.7164 21.6602C72.7164 24.3092 72.0542 26.0063 70.6883 26.8341C69.3224 27.6205 67.8323 28.0344 66.1766 28.0344C64.6038 28.0344 63.1551 27.6205 61.8305 26.7513C60.506 25.9235 59.8438 24.2264 59.8438 21.6602V12.4713H63.6931V22.4466C63.6931 24.1437 64.5624 24.9715 66.3008 24.9715C68.0392 24.9715 68.9085 24.1437 68.9085 22.4466V14.3753C68.8671 13.0922 69.4879 12.4713 70.7711 12.4713H72.7578V21.6602H72.7164Z" fill="#635BFF"/>
<path d="M86.2097 27.786C84.9266 27.7032 84.3057 27.0824 84.3057 25.882V18.0177C84.2229 16.4448 83.3537 15.6584 81.6566 15.6584C79.9596 15.6584 79.0904 16.4448 79.049 18.0177V27.786H75.1582V18.8041C75.1582 14.458 77.3519 12.2643 81.698 12.2643C86.0441 12.2643 88.2379 14.458 88.1965 18.8041V27.786H86.2097Z" fill="#635BFF"/>
<path d="M102.85 8.12524C103.388 8.12524 103.844 8.3322 104.216 8.70472C104.589 9.07724 104.796 9.53255 104.796 10.0706V12.1402V21.1635C104.796 25.7579 102.395 28.0345 97.6349 27.9931C92.9163 27.9103 90.5156 25.344 90.5156 20.2529C90.5156 15.079 92.5438 12.3885 96.6001 12.223C98.5041 12.223 99.9528 13.0094 100.946 14.5823V8.12524H102.85ZM97.7177 15.6999C95.6481 15.6999 94.572 17.1485 94.4478 20.0873C94.4064 23.1917 95.4826 24.7232 97.6763 24.7232C99.8701 24.7232 100.946 23.1917 100.946 20.0873C100.863 17.1485 99.7873 15.6999 97.7177 15.6999Z" fill="#635BFF"/>
<path d="M120.731 23.0674C120.276 24.8058 119.531 26.0476 118.454 26.834C117.213 27.6618 115.764 28.0758 114.067 28.0758C109.431 27.9102 107.113 25.2612 107.113 20.0458C107.113 14.8305 109.431 12.3057 114.108 12.2643C118.951 12.2643 121.228 15.2445 120.938 21.2462H111.087C111.252 23.5641 112.246 24.7645 114.15 24.7645C115.06 24.7645 115.888 24.3919 116.633 23.6883C116.964 23.3158 117.42 23.1088 117.916 23.1088H120.731V23.0674ZM116.882 18.473C116.675 16.4448 115.723 15.41 114.067 15.41C112.411 15.41 111.418 16.4448 111.128 18.473H116.882Z" fill="#635BFF"/>
<path d="M135.672 8.12524C136.211 8.12524 136.666 8.3322 137.038 8.70472C137.411 9.07724 137.618 9.53255 137.618 10.0706V12.1402V21.1635C137.618 25.7579 135.217 28.0345 130.457 27.9931C125.739 27.9103 123.338 25.344 123.338 20.2529C123.338 15.079 125.366 12.3885 129.422 12.223C131.326 12.223 132.775 13.0094 133.768 14.5823V8.12524H135.672ZM130.54 15.6999C128.47 15.6999 127.394 17.1485 127.27 20.0873C127.229 23.1917 128.305 24.7232 130.499 24.7232C132.692 24.7232 133.768 23.1917 133.768 20.0873C133.644 17.1485 132.568 15.6999 130.54 15.6999Z" fill="#635BFF"/>
<path d="M140.104 10.2361C140.104 9.6566 140.31 9.2013 140.683 8.78738C141.097 8.37347 141.552 8.16651 142.132 8.16651H144.284L152.314 21.6601V8.12512H156.246V27.7446H152.066L144.036 14.251V27.7446H140.104V10.2361Z" fill="#0F0B4A"/>
<path d="M172.596 23.0674C172.141 24.8059 171.396 26.0476 170.32 26.834C169.078 27.6619 167.629 28.0758 165.932 28.0758C161.296 27.9102 158.979 25.2612 158.979 20.0459C158.979 14.8306 161.296 12.2229 165.974 12.2229C170.816 12.2229 173.093 15.2031 172.803 21.2048H162.911C163.076 23.5227 164.07 24.7231 165.974 24.7231C166.884 24.7231 167.712 24.3506 168.457 23.6469C168.788 23.2744 169.244 23.0674 169.74 23.0674H172.596ZM168.747 18.473C168.54 16.4448 167.588 15.41 165.932 15.41C164.277 15.41 163.283 16.4448 162.993 18.473H168.747Z" fill="#0F0B4A"/>
<path d="M182.944 27.786L180.253 22.9433L177.48 27.786H172.803L177.77 19.9631L173.092 12.5126H177.48L180.129 17.1485L183.068 12.1815C183.399 11.5193 183.978 11.1467 184.765 11.1467H188.283L182.53 20.0045L187.621 27.786H182.944Z" fill="#0F0B4A"/>
<path d="M191.718 27.579C190.269 27.4549 189.566 26.5443 189.607 24.8472V8.12512H191.594C192.091 8.12512 192.505 8.33208 192.877 8.7046C193.25 9.07712 193.457 9.53243 193.457 10.0705V12.5126H195.774V13.3404C195.774 13.9199 195.568 14.3752 195.195 14.7063C194.822 15.0789 194.367 15.2444 193.829 15.2444H193.415V23.6883C193.415 24.3091 193.788 24.6403 194.533 24.6403H195.733V27.579C194.491 27.7032 193.167 27.7032 191.718 27.579Z" fill="#0F0B4A"/>
</svg>
